<svg xmlns="http://www.w3.org/2000/svg" xmlns:xlink="http://www.w3.org/1999/xlink" id="body_1" preserveAspectRatio="xMinYMin meet" viewBox="0 0 793 1121"><defs><clipPath id="1"><path id="" clip-rule="evenodd" transform="matrix(1 0 0 1 0 0)" d="M0 841L0 -0.9000244L0 -0.9000244L595.3 -0.9000244L595.3 -0.9000244L595.3 841L595.3 841L0 841z" /></clipPath><clipPath id="2"><path id="" clip-rule="evenodd" transform="matrix(1 0 0 1 0 0)" d="M0 34.54999L595.3 34.54999L595.3 34.54999L595.3 103.55L595.3 103.55L0 103.55z" /></clipPath><clipPath id="3"><path id="" clip-rule="evenodd" transform="matrix(1 0 0 1 0 0)" d="M0 788.151L595.3 788.151L595.3 788.151L595.3 798.5L595.3 798.5L0 798.5z" /></clipPath><clipPath id="4"><path id="" clip-rule="evenodd" transform="matrix(1 0 0 1 0 0)" d="M295.4 788.651L299.9 788.651L299.9 788.651L299.9 799L299.9 799L295.4 799z" /></clipPath></defs><g transform="matrix(1.333333 0 0 1.333333 0 0)"><g clip-path="url(#1)"><g transform="matrix(0.6340458 0 0 0.6339667 89.9 310.425)"><g transform="matrix(1 0 0 1 0 0)"><image x="0" y="0" xlink:href="img_01.png" width="655" height="421" /></g></g><g clip-path="url(#2)"></g><g clip-path="url(#3)"></g><g transform="matrix(0.3280193 0 0 0.3280193 469.6 34.54999)"><g transform="matrix(1 0 0 1 0 0)"><image x="0" y="0" xlink:href="img_02.png" width="207" height="207" /></g></g><g clip-path="url(#4)"></g><path id="159" transform="matrix(1 0 0 -1 0 841)" d="M150.603 576.8477L186.407 576.8477" stroke="#000000" stroke-width="0.55" fill="none" /><path id="160" transform="matrix(1 0 0 -1 0 841)" d="M325.293 576.8477L354.587 576.8477" stroke="#000000" stroke-width="0.55" fill="none" /></g></g></svg>