<svg xmlns="http://www.w3.org/2000/svg" xmlns:xlink="http://www.w3.org/1999/xlink" id="body_1" preserveAspectRatio="xMinYMin meet" viewBox="0 0 793 1121"><defs><clipPath id="1"><path id="" clip-rule="evenodd" transform="matrix(1 0 0 1 0 0)" d="M0 841L0 -0.9000244L0 -0.9000244L595.3 -0.9000244L595.3 -0.9000244L595.3 841L595.3 841L0 841z" /></clipPath><clipPath id="2"><path id="" clip-rule="evenodd" transform="matrix(1 0 0 1 0 0)" d="M0 34.54999L595.3 34.54999L595.3 34.54999L595.3 103.55L595.3 103.55L0 103.55z" /></clipPath><clipPath id="3"><path id="" clip-rule="evenodd" transform="matrix(1 0 0 1 0 0)" d="M0 788.151L595.3 788.151L595.3 788.151L595.3 798.5L595.3 798.5L0 798.5z" /></clipPath><clipPath id="4"><path id="" clip-rule="evenodd" transform="matrix(1 0 0 1 0 0)" d="M295.4 788.651L299.9 788.651L299.9 788.651L299.9 799L299.9 799L295.4 799z" /></clipPath><clipPath id="5"><path id="" clip-rule="evenodd" transform="matrix(1 0 0 1 0 0)" d="M57.2 104.05L138.95 104.05L138.95 104.05L138.95 134.919L138.95 134.919L57.2 134.919z" /></clipPath><clipPath id="6"><path id="" clip-rule="evenodd" transform="matrix(1 0 0 1 0 0)" d="M139.45 104.05L247.7 104.05L247.7 104.05L247.7 134.919L247.7 134.919L139.45 134.919z" /></clipPath><clipPath id="7"><path id="" clip-rule="evenodd" transform="matrix(1 0 0 1 0 0)" d="M248.2 104.05L426.2 104.05L426.2 104.05L426.2 134.919L426.2 134.919L248.2 134.919z" /></clipPath><clipPath id="8"><path id="" clip-rule="evenodd" transform="matrix(1 0 0 1 0 0)" d="M426.7 104.05L555.2 104.05L555.2 104.05L555.2 134.919L555.2 134.919L426.7 134.919z" /></clipPath><clipPath id="9"><path id="" clip-rule="evenodd" transform="matrix(1 0 0 1 0 0)" d="M57.2 135.419L138.95 135.419L138.95 135.419L138.95 166.288L138.95 166.288L57.2 166.288z" /></clipPath><clipPath id="10"><path id="" clip-rule="evenodd" transform="matrix(1 0 0 1 0 0)" d="M139.45 135.419L247.7 135.419L247.7 135.419L247.7 166.288L247.7 166.288L139.45 166.288z" /></clipPath><clipPath id="11"><path id="" clip-rule="evenodd" transform="matrix(1 0 0 1 0 0)" d="M248.2 135.419L426.2 135.419L426.2 135.419L426.2 166.288L426.2 166.288L248.2 166.288z" /></clipPath><clipPath id="12"><path id="" clip-rule="evenodd" transform="matrix(1 0 0 1 0 0)" d="M426.7 135.419L555.2 135.419L555.2 135.419L555.2 166.288L555.2 166.288L426.7 166.288z" /></clipPath><clipPath id="13"><path id="" clip-rule="evenodd" transform="matrix(1 0 0 1 0 0)" d="M57.2 166.788L138.95 166.788L138.95 166.788L138.95 197.657L138.95 197.657L57.2 197.657z" /></clipPath><clipPath id="14"><path id="" clip-rule="evenodd" transform="matrix(1 0 0 1 0 0)" d="M139.45 166.788L426.2 166.788L426.2 166.788L426.2 197.657L426.2 197.657L139.45 197.657z" /></clipPath><clipPath id="15"><path id="" clip-rule="evenodd" transform="matrix(1 0 0 1 0 0)" d="M426.7 166.788L555.2 166.788L555.2 166.788L555.2 197.657L555.2 197.657L426.7 197.657z" /></clipPath><clipPath id="16"><path id="" clip-rule="evenodd" transform="matrix(1 0 0 1 0 0)" d="M57.2 198.157L555.2 198.157L555.2 198.157L555.2 229.0261L555.2 229.0261L57.2 229.0261z" /></clipPath><clipPath id="17"><path id="" clip-rule="evenodd" transform="matrix(1 0 0 1 0 0)" d="M57.2 229.526L555.2 229.526L555.2 229.526L555.2 260.395L555.2 260.395L57.2 260.395z" /></clipPath><clipPath id="18"><path id="" clip-rule="evenodd" transform="matrix(1 0 0 1 0 0)" d="M57.2 260.895L555.2 260.895L555.2 260.895L555.2 291.764L555.2 291.764L57.2 291.764z" /></clipPath><clipPath id="19"><path id="" clip-rule="evenodd" transform="matrix(1 0 0 1 0 0)" d="M57.2 292.264L555.2 292.264L555.2 292.264L555.2 323.1331L555.2 323.1331L57.2 323.1331z" /></clipPath><clipPath id="20"><path id="" clip-rule="evenodd" transform="matrix(1 0 0 1 0 0)" d="M57.2 323.633L101.45 323.633L101.45 323.633L101.45 359.983L101.45 359.983L57.2 359.983z" /></clipPath><clipPath id="21"><path id="" clip-rule="evenodd" transform="matrix(1 0 0 1 0 0)" d="M101.95 323.633L146.2 323.633L146.2 323.633L146.2 359.983L146.2 359.983L101.95 359.983z" /></clipPath><clipPath id="22"><path id="" clip-rule="evenodd" transform="matrix(1 0 0 1 0 0)" d="M146.7 323.633L190.95 323.633L190.95 323.633L190.95 359.983L190.95 359.983L146.7 359.983z" /></clipPath><clipPath id="23"><path id="" clip-rule="evenodd" transform="matrix(1 0 0 1 0 0)" d="M191.45 323.633L235.7 323.633L235.7 323.633L235.7 359.983L235.7 359.983L191.45 359.983z" /></clipPath><clipPath id="24"><path id="" clip-rule="evenodd" transform="matrix(1 0 0 1 0 0)" d="M236.2 323.633L273.95 323.633L273.95 323.633L273.95 359.983L273.95 359.983L236.2 359.983z" /></clipPath><clipPath id="25"><path id="" clip-rule="evenodd" transform="matrix(1 0 0 1 0 0)" d="M274.45 323.633L309.95 323.633L309.95 323.633L309.95 359.983L309.95 359.983L274.45 359.983z" /></clipPath><clipPath id="26"><path id="" clip-rule="evenodd" transform="matrix(1 0 0 1 0 0)" d="M310.45 323.633L347.45 323.633L347.45 323.633L347.45 359.983L347.45 359.983L310.45 359.983z" /></clipPath><clipPath id="27"><path id="" clip-rule="evenodd" transform="matrix(1 0 0 1 0 0)" d="M347.95 323.633L404.45 323.633L404.45 323.633L404.45 359.983L404.45 359.983L347.95 359.983z" /></clipPath><clipPath id="28"><path id="" clip-rule="evenodd" transform="matrix(1 0 0 1 0 0)" d="M404.95 323.633L462.95 323.633L462.95 323.633L462.95 359.983L462.95 359.983L404.95 359.983z" /></clipPath><clipPath id="29"><path id="" clip-rule="evenodd" transform="matrix(1 0 0 1 0 0)" d="M463.45 323.633L520.7 323.633L520.7 323.633L520.7 359.983L520.7 359.983L463.45 359.983z" /></clipPath><clipPath id="30"><path id="" clip-rule="evenodd" transform="matrix(1 0 0 1 0 0)" d="M521.2 323.633L555.2 323.633L555.2 323.633L555.2 359.983L555.2 359.983L521.2 359.983z" /></clipPath><clipPath id="31"><path id="" clip-rule="evenodd" transform="matrix(1 0 0 1 0 0)" d="M57.2 360.483L102 360.483L102 360.483L102 396.833L102 396.833L57.2 396.833z" /></clipPath><clipPath id="32"><path id="" clip-rule="evenodd" transform="matrix(1 0 0 1 0 0)" d="M102.5 360.483L146.2 360.483L146.2 360.483L146.2 396.833L146.2 396.833L102.5 396.833z" /></clipPath><clipPath id="33"><path id="" clip-rule="evenodd" transform="matrix(1 0 0 1 0 0)" d="M146.7 360.483L190.95 360.483L190.95 360.483L190.95 396.833L190.95 396.833L146.7 396.833z" /></clipPath><clipPath id="34"><path id="" clip-rule="evenodd" transform="matrix(1 0 0 1 0 0)" d="M191.45 360.483L235.7 360.483L235.7 360.483L235.7 396.833L235.7 396.833L191.45 396.833z" /></clipPath><clipPath id="35"><path id="" clip-rule="evenodd" transform="matrix(1 0 0 1 0 0)" d="M236.2 360.483L273.95 360.483L273.95 360.483L273.95 396.833L273.95 396.833L236.2 396.833z" /></clipPath><clipPath id="36"><path id="" clip-rule="evenodd" transform="matrix(1 0 0 1 0 0)" d="M274.45 360.483L309.95 360.483L309.95 360.483L309.95 396.833L309.95 396.833L274.45 396.833z" /></clipPath><clipPath id="37"><path id="" clip-rule="evenodd" transform="matrix(1 0 0 1 0 0)" d="M310.45 360.483L347.45 360.483L347.45 360.483L347.45 396.833L347.45 396.833L310.45 396.833z" /></clipPath><clipPath id="38"><path id="" clip-rule="evenodd" transform="matrix(1 0 0 1 0 0)" d="M347.95 360.483L404.45 360.483L404.45 360.483L404.45 396.833L404.45 396.833L347.95 396.833z" /></clipPath><clipPath id="39"><path id="" clip-rule="evenodd" transform="matrix(1 0 0 1 0 0)" d="M404.95 360.483L462.95 360.483L462.95 360.483L462.95 396.833L462.95 396.833L404.95 396.833z" /></clipPath><clipPath id="40"><path id="" clip-rule="evenodd" transform="matrix(1 0 0 1 0 0)" d="M463.45 360.483L520.7 360.483L520.7 360.483L520.7 396.833L520.7 396.833L463.45 396.833z" /></clipPath><clipPath id="41"><path id="" clip-rule="evenodd" transform="matrix(1 0 0 1 0 0)" d="M521.2 360.483L555.2 360.483L555.2 360.483L555.2 396.833L555.2 396.833L521.2 396.833z" /></clipPath><clipPath id="42"><path id="" clip-rule="evenodd" transform="matrix(1 0 0 1 0 0)" d="M57.2 397.333L309.95 397.333L309.95 397.333L309.95 490.809L309.95 490.809L57.2 490.809z" /></clipPath><clipPath id="43"><path id="" clip-rule="evenodd" transform="matrix(1 0 0 1 0 0)" d="M310.45 397.333L555.2 397.333L555.2 397.333L555.2 490.809L555.2 490.809L310.45 490.809z" /></clipPath><clipPath id="44"><path id="" clip-rule="evenodd" transform="matrix(1 0 0 1 0 0)" d="M57.2 491.309L309.95 491.309L309.95 491.309L309.95 646.523L309.95 646.523L57.2 646.523z" /></clipPath><clipPath id="45"><path id="" clip-rule="evenodd" transform="matrix(1 0 0 1 0 0)" d="M310.45 491.309L555.2 491.309L555.2 491.309L555.2 646.523L555.2 646.523L310.45 646.523z" /></clipPath><clipPath id="46"><path id="" clip-rule="evenodd" transform="matrix(1 0 0 1 0 0)" d="M57.2 647.023L309.95 647.023L309.95 647.023L309.95 752.499L309.95 752.499L57.2 752.499z" /></clipPath><clipPath id="47"><path id="" clip-rule="evenodd" transform="matrix(1 0 0 1 0 0)" d="M310.45 647.023L555.2 647.023L555.2 647.023L555.2 752.499L555.2 752.499L310.45 752.499z" /></clipPath></defs><g transform="matrix(1.333333 0 0 1.333333 0 0)"><g clip-path="url(#1)"><g transform="matrix(0.6340458 0 0 0.6339667 89.9 310.425)"><g transform="matrix(1 0 0 1 0 0)"><image x="0" y="0" xlink:href="img_01.png" width="655" height="421" /></g></g><g clip-path="url(#2)"></g><g clip-path="url(#3)"></g><g transform="matrix(0.3280193 0 0 0.3280193 469.6 34.54999)"><g transform="matrix(1 0 0 1 0 0)"><image x="0" y="0" xlink:href="img_02.png" width="207" height="207" /></g></g><g clip-path="url(#4)"></g><g clip-path="url(#5)"></g><g clip-path="url(#6)"></g><g clip-path="url(#7)"></g><g clip-path="url(#8)"></g><g clip-path="url(#9)"></g><g clip-path="url(#10)"></g><g clip-path="url(#11)"></g><g clip-path="url(#12)"></g><g clip-path="url(#13)"></g><g clip-path="url(#14)"></g><g clip-path="url(#15)"></g><g clip-path="url(#16)"></g><g clip-path="url(#17)"><path id="83" transform="matrix(1 0 0 -1 0 841)" d="M292.447 588.9617L308.721 588.9617" stroke="#000000" stroke-width="0.55" fill="none" /></g><g clip-path="url(#18)"></g><g clip-path="url(#19)"></g><g clip-path="url(#20)"></g><g clip-path="url(#21)"></g><g clip-path="url(#22)"></g><g clip-path="url(#23)"></g><g clip-path="url(#24)"></g><g clip-path="url(#25)"></g><g clip-path="url(#26)"></g><g clip-path="url(#27)"></g><g clip-path="url(#28)"></g><g clip-path="url(#29)"></g><g clip-path="url(#30)"></g><g clip-path="url(#31)"></g><g clip-path="url(#32)"></g><g clip-path="url(#33)"></g><g clip-path="url(#34)"></g><g clip-path="url(#35)"></g><g clip-path="url(#36)"></g><g clip-path="url(#37)"></g><g clip-path="url(#38)"></g><g clip-path="url(#39)"></g><g clip-path="url(#40)"></g><g clip-path="url(#41)"></g><g clip-path="url(#42)"></g><g clip-path="url(#43)"></g><g clip-path="url(#44)"></g><g clip-path="url(#45)"></g><g clip-path="url(#46)"></g><g clip-path="url(#47)"></g><path id="292" transform="matrix(1 0 0 -1 0 841)" d="M56.95 736.95L56.95 88.50098" stroke="#000000" stroke-width="0.5" fill="none" /><path id="293" transform="matrix(1 0 0 -1 0 841)" d="M139.2 736.95L139.2 706.081" stroke="#000000" stroke-width="0.5" fill="none" /><path id="294" transform="matrix(1 0 0 -1 0 841)" d="M139.2 705.581L139.2 674.712" stroke="#000000" stroke-width="0.5" fill="none" /><path id="295" transform="matrix(1 0 0 -1 0 841)" d="M139.2 674.212L139.2 643.343" stroke="#000000" stroke-width="0.5" fill="none" /><path id="296" transform="matrix(1 0 0 -1 0 841)" d="M247.95 736.95L247.95 706.081" stroke="#000000" stroke-width="0.5" fill="none" /><path id="297" transform="matrix(1 0 0 -1 0 841)" d="M247.95 705.581L247.95 674.712" stroke="#000000" stroke-width="0.5" fill="none" /><path id="298" transform="matrix(1 0 0 -1 0 841)" d="M426.45 736.95L426.45 706.081" stroke="#000000" stroke-width="0.5" fill="none" /><path id="299" transform="matrix(1 0 0 -1 0 841)" d="M426.45 705.581L426.45 674.712" stroke="#000000" stroke-width="0.5" fill="none" /><path id="300" transform="matrix(1 0 0 -1 0 841)" d="M426.45 674.212L426.45 643.343" stroke="#000000" stroke-width="0.5" fill="none" /><path id="301" transform="matrix(1 0 0 -1 0 841)" d="M555.45 736.95L555.45 88.50098" stroke="#000000" stroke-width="0.5" fill="none" /><path id="302" transform="matrix(1 0 0 -1 0 841)" d="M101.7 517.367L101.7 481.017" stroke="#000000" stroke-width="0.5" fill="none" /><path id="303" transform="matrix(1 0 0 -1 0 841)" d="M146.45 517.367L146.45 481.017" stroke="#000000" stroke-width="0.5" fill="none" /><path id="304" transform="matrix(1 0 0 -1 0 841)" d="M146.45 480.517L146.45 444.167" stroke="#000000" stroke-width="0.5" fill="none" /><path id="305" transform="matrix(1 0 0 -1 0 841)" d="M191.2 517.367L191.2 481.017" stroke="#000000" stroke-width="0.5" fill="none" /><path id="306" transform="matrix(1 0 0 -1 0 841)" d="M191.2 480.517L191.2 444.167" stroke="#000000" stroke-width="0.5" fill="none" /><path id="307" transform="matrix(1 0 0 -1 0 841)" d="M235.95 517.367L235.95 481.017" stroke="#000000" stroke-width="0.5" fill="none" /><path id="308" transform="matrix(1 0 0 -1 0 841)" d="M235.95 480.517L235.95 444.167" stroke="#000000" stroke-width="0.5" fill="none" /><path id="309" transform="matrix(1 0 0 -1 0 841)" d="M274.2 517.367L274.2 481.017" stroke="#000000" stroke-width="0.5" fill="none" /><path id="310" transform="matrix(1 0 0 -1 0 841)" d="M274.2 480.517L274.2 444.167" stroke="#000000" stroke-width="0.5" fill="none" /><path id="311" transform="matrix(1 0 0 -1 0 841)" d="M310.2 517.367L310.2 481.017" stroke="#000000" stroke-width="0.5" fill="none" /><path id="312" transform="matrix(1 0 0 -1 0 841)" d="M310.2 480.517L310.2 444.167" stroke="#000000" stroke-width="0.5" fill="none" /><path id="313" transform="matrix(1 0 0 -1 0 841)" d="M310.2 443.667L310.2 350.191" stroke="#000000" stroke-width="0.5" fill="none" /><path id="314" transform="matrix(1 0 0 -1 0 841)" d="M310.2 349.691L310.2 194.477" stroke="#000000" stroke-width="0.5" fill="none" /><path id="315" transform="matrix(1 0 0 -1 0 841)" d="M310.2 193.977L310.2 88.50098" stroke="#000000" stroke-width="0.5" fill="none" /><path id="316" transform="matrix(1 0 0 -1 0 841)" d="M347.7 517.367L347.7 481.017" stroke="#000000" stroke-width="0.5" fill="none" /><path id="317" transform="matrix(1 0 0 -1 0 841)" d="M347.7 480.517L347.7 444.167" stroke="#000000" stroke-width="0.5" fill="none" /><path id="318" transform="matrix(1 0 0 -1 0 841)" d="M404.7 517.367L404.7 481.017" stroke="#000000" stroke-width="0.5" fill="none" /><path id="319" transform="matrix(1 0 0 -1 0 841)" d="M404.7 480.517L404.7 444.167" stroke="#000000" stroke-width="0.5" fill="none" /><path id="320" transform="matrix(1 0 0 -1 0 841)" d="M463.2 517.367L463.2 481.017" stroke="#000000" stroke-width="0.5" fill="none" /><path id="321" transform="matrix(1 0 0 -1 0 841)" d="M463.2 480.517L463.2 444.167" stroke="#000000" stroke-width="0.5" fill="none" /><path id="322" transform="matrix(1 0 0 -1 0 841)" d="M520.95 517.367L520.95 481.017" stroke="#000000" stroke-width="0.5" fill="none" /><path id="323" transform="matrix(1 0 0 -1 0 841)" d="M520.95 480.517L520.95 444.167" stroke="#000000" stroke-width="0.5" fill="none" /><path id="324" transform="matrix(1 0 0 -1 0 841)" d="M102.25 480.517L102.25 444.167" stroke="#000000" stroke-width="0.5" fill="none" /><path id="325" transform="matrix(1 0 0 -1 0 841)" d="M56.7 737.2L555.7 737.2" stroke="#000000" stroke-width="0.5" fill="none" /><path id="326" transform="matrix(1 0 0 -1 0 841)" d="M57.2 705.831L555.2 705.831" stroke="#000000" stroke-width="0.5" fill="none" /><path id="327" transform="matrix(1 0 0 -1 0 841)" d="M57.2 674.462L555.2 674.462" stroke="#000000" stroke-width="0.5" fill="none" /><path id="328" transform="matrix(1 0 0 -1 0 841)" d="M57.2 643.093L555.2 643.093" stroke="#000000" stroke-width="0.5" fill="none" /><path id="329" transform="matrix(1 0 0 -1 0 841)" d="M57.2 611.724L555.2 611.724" stroke="#000000" stroke-width="0.5" fill="none" /><path id="330" transform="matrix(1 0 0 -1 0 841)" d="M57.2 580.355L555.2 580.355" stroke="#000000" stroke-width="0.5" fill="none" /><path id="331" transform="matrix(1 0 0 -1 0 841)" d="M57.2 548.986L555.2 548.986" stroke="#000000" stroke-width="0.5" fill="none" /><path id="332" transform="matrix(1 0 0 -1 0 841)" d="M57.2 517.617L555.2 517.617" stroke="#000000" stroke-width="0.5" fill="none" /><path id="333" transform="matrix(1 0 0 -1 0 841)" d="M57.2 480.767L555.2 480.767" stroke="#000000" stroke-width="0.5" fill="none" /><path id="334" transform="matrix(1 0 0 -1 0 841)" d="M57.2 443.917L555.2 443.917" stroke="#000000" stroke-width="0.5" fill="none" /><path id="335" transform="matrix(1 0 0 -1 0 841)" d="M57.2 349.941L555.2 349.941" stroke="#000000" stroke-width="0.5" fill="none" /><path id="336" transform="matrix(1 0 0 -1 0 841)" d="M57.2 194.227L555.2 194.227" stroke="#000000" stroke-width="0.5" fill="none" /><path id="337" transform="matrix(1 0 0 -1 0 841)" d="M56.7 88.25098L555.7 88.25098" stroke="#000000" stroke-width="0.5" fill="none" /></g></g></svg>